<?xml version="1.0" standalone="no"?>
<!DOCTYPE svg PUBLIC "-//W3C//DTD SVG 20010904//EN"
 "http://www.w3.org/TR/2001/REC-SVG-20010904/DTD/svg10.dtd">
<svg version="1.0" xmlns="http://www.w3.org/2000/svg"
 width="300.000000pt" height="300.000000pt" viewBox="0 0 300.000000 300.000000"
 preserveAspectRatio="xMidYMid meet">
<metadata>
Created by potrace 1.11, written by Peter Selinger 2001-2013
</metadata>
<g transform="translate(0.000000,300.000000) scale(0.100000,-0.100000)"
fill="#000000" stroke="none">
<path d="M0 1500 l0 -1500 1500 0 1500 0 0 1500 0 1500 -1500 0 -1500 0 0
-1500z m1756 843 c-7 -25 -66 -330 -66 -343 0 -7 141 -10 425 -10 234 0 425
-4 425 -8 0 -5 -25 -136 -55 -292 -30 -156 -55 -287 -55 -292 0 -4 -98 -8
-218 -8 l-218 0 -68 -352 c-37 -194 -70 -363 -73 -376 l-5 -22 -305 0 c-285 0
-304 1 -299 18 7 24 66 329 66 342 0 7 -141 10 -425 10 -234 0 -425 4 -425 9
0 12 179 934 185 948 2 8 31 13 76 15 l72 3 -147 182 c-80 100 -146 184 -146
187 0 3 284 6 631 6 596 0 630 -1 625 -17z"/>
<path d="M882 2163 c8 -10 52 -64 97 -120 l82 -103 94 0 c106 0 101 5 84 -83
l-12 -57 -216 0 -217 0 -54 -277 c-29 -153 -55 -288 -58 -300 l-4 -23 336 0
c185 0 336 2 336 5 0 6 178 925 185 953 l5 22 -336 0 c-320 0 -336 -1 -322
-17z m292 -640 c-17 -93 -11 -88 -104 -91 -110 -4 -110 -4 -98 55 5 26 11 54
13 61 3 8 32 12 100 12 l96 0 -7 -37z"/>
<path d="M1650 1795 c0 -6 -178 -925 -185 -952 -5 -23 -5 -23 114 -23 115 0
119 1 124 23 3 12 36 177 72 367 37 190 69 348 72 352 2 5 100 8 217 8 l213 0
22 108 c11 59 21 110 21 115 0 4 -151 7 -335 7 -184 0 -335 -2 -335 -5z"/>
</g>
</svg>
