<svg id="Layer_1" data-name="Layer 1" xmlns="http://www.w3.org/2000/svg" viewBox="0 0 301.2 74.81"><defs><style>.cls-1{fill:#fff;}.cls-2{fill:#2d3436;}.cls-3{fill:#3742fa;}</style></defs><title>ar_sticker_color</title><polygon class="cls-1" points="280.39 17.02 283.7 0 258.68 0 255.37 17.02 225.9 17.02 210.64 17.02 187.98 17.02 181.53 17.02 150.06 17.02 153.37 0 134.8 0 128.35 0 109.78 0 106.47 17.02 93.57 17.02 87.12 17.02 55.65 17.02 49.2 17.02 30.95 17.02 2.47 17.02 16.18 34.05 7.97 34.05 0 75.06 37.92 75.06 44.37 75.06 75.84 75.06 82.29 75.06 113.76 75.06 120.21 75.06 132.33 75.06 138.78 75.06 170.25 75.06 176.7 75.06 195.27 75.06 208.17 75.06 244.09 75.06 250.54 75.06 288.46 75.06 299.74 17.02 280.39 17.02"/><polygon class="cls-2" points="67.82 57.27 59.31 57.27 65.78 23.99 54.94 23.99 48.47 57.27 48.4 57.65 46.37 68.1 76.55 68.1 78.58 57.65 78.65 57.27 85.12 23.99 74.29 23.99 67.82 57.27"/><path class="cls-2" d="M112.21,24H92.86l-2.1,10.83L86.39,57.27l-.07.38-2,10.45h30.18l2-10.45.07-.38,4.37-22.45L123,24l3.31-17H115.52Zm-6.47,33.28H97.23l4.36-22.45h8.51Z"/><polygon class="cls-2" points="122.21 68.1 133.04 68.1 141.54 24.38 130.71 24.38 122.21 68.1"/><polygon class="cls-2" points="131.76 18.96 142.59 18.96 144.92 6.96 134.09 6.96 131.76 18.96"/><path class="cls-2" d="M147.25,34.82l-4.37,22.45-.07.38-2,10.45H171l2-10.45.07-.38,4.37-22.45L179.53,24H149.35Zm19.34,0-4.36,22.45h-8.51l4.36-22.45Z"/><polygon class="cls-3" points="185.17 34.82 178.7 68.1 189.53 68.1 196 34.82 215.35 34.82 217.45 23.99 187.27 23.99 185.17 34.82"/><polygon class="cls-3" points="271.94 23.99 275.25 6.96 264.42 6.96 261.11 23.99 259 34.82 252.54 68.1 263.37 68.1 269.84 34.82 278.35 34.82 271.88 68.1 282.72 68.1 289.18 34.82 291.29 23.99 271.94 23.99"/><path class="cls-2" d="M25.75,34.82h8.51L33.06,41H13.71l-1,5-1.13,5.81-1.06,5.42-.07.38-2,10.45H38.63l2-10.45.08-.38,1-5.42L43.89,41l1.21-6.19.52-2.7L47.2,24H17ZM29.9,57.27H21.39l1.05-5.42H31Z"/><path class="cls-3" d="M231.92,34.82h8.51L239.23,41H219.88l-1,5-1.12,5.81-1.06,5.42-.07.38-2,10.45H244.8l2-10.45.07-.38L248,51.85,250.06,41l1.21-6.19.52-2.7L253.37,24H223.19Zm4.15,22.45h-8.51l1.05-5.42h8.51Z"/></svg>